<svg width="44" height="16" viewBox="0 0 44 16" fill="none" xmlns="http://www.w3.org/2000/svg">
<path d="M1.5 7C0.947715 7 0.5 7.44772 0.5 8C0.5 8.55229 0.947715 9 1.5 9L1.5 7ZM43.2071 8.70711C43.5976 8.31659 43.5976 7.68342 43.2071 7.2929L36.8431 0.928936C36.4526 0.538412 35.8195 0.538412 35.4289 0.928937C35.0384 1.31946 35.0384 1.95263 35.4289 2.34315L41.0858 8L35.4289 13.6569C35.0384 14.0474 35.0384 14.6805 35.4289 15.0711C35.8195 15.4616 36.4526 15.4616 36.8431 15.0711L43.2071 8.70711ZM1.5 9L42.5 9L42.5 7L1.5 7L1.5 9Z" fill="white"/>
</svg>
