<svg width="31" height="31" viewBox="0 0 31 31" fill="none" xmlns="http://www.w3.org/2000/svg">
<path d="M13.2614 12.2842C12.8641 12.5504 12.523 12.8923 12.2576 13.2906C11.9922 13.6889 11.8077 14.1356 11.7145 14.6054C11.5265 15.554 11.7222 16.5387 12.2586 17.3428C12.7951 18.1468 13.6283 18.7044 14.575 18.8929C15.5217 19.0813 16.5043 18.8852 17.3067 18.3477C18.1091 17.8101 18.6655 16.9751 18.8536 16.0265C19.0417 15.0778 18.8459 14.0931 18.3095 13.2891C17.7731 12.485 16.9399 11.9274 15.9932 11.739C15.0465 11.5505 14.0638 11.7466 13.2614 12.2842ZM22.9688 7.6084C22.614 7.25293 22.1842 6.97266 21.7136 6.78809C20.4788 6.30273 17.7842 6.32324 16.0447 6.34375C15.765 6.34375 15.5058 6.35059 15.2807 6.35059C15.0555 6.35059 14.7895 6.35059 14.503 6.34375C12.7634 6.32324 10.0825 6.2959 8.84778 6.78809C8.37708 6.97266 7.95413 7.25293 7.59258 7.6084C7.23103 7.96387 6.95816 8.39453 6.77397 8.86621C6.28963 10.1035 6.31692 12.8105 6.33056 14.5537C6.33056 14.834 6.33738 15.0938 6.33738 15.3125C6.33738 15.5312 6.33738 15.791 6.33056 16.0713C6.31692 17.8145 6.28963 20.5215 6.77397 21.7588C6.95816 22.2305 7.23785 22.6543 7.59258 23.0166C7.94731 23.3789 8.37708 23.6523 8.84778 23.8369C10.0825 24.3223 12.7771 24.3018 14.5166 24.2812C14.7963 24.2812 15.0555 24.2744 15.2807 24.2744C15.5058 24.2744 15.7718 24.2744 16.0583 24.2812C17.7979 24.3018 20.4788 24.3291 21.7136 23.8369C22.1842 23.6523 22.6072 23.3721 22.9688 23.0166C23.3303 22.6611 23.6032 22.2305 23.7874 21.7588C24.2785 20.5283 24.2512 17.835 24.2308 16.085C24.2308 15.7979 24.2239 15.5312 24.2239 15.3057C24.2239 15.0801 24.2239 14.8203 24.2308 14.5264C24.2512 12.7832 24.2785 10.0898 23.7874 8.85254C23.6032 8.38086 23.3235 7.95703 22.9688 7.59473V7.6084ZM18.3914 10.6504C19.6253 11.4771 20.4809 12.7612 20.77 14.2201C21.0591 15.679 20.7581 17.1932 19.9331 18.4297C19.5246 19.0419 18.9997 19.5675 18.3885 19.9765C17.7773 20.3855 17.0917 20.6698 16.3708 20.8133C14.915 21.103 13.4039 20.8013 12.17 19.9746C10.9361 19.1488 10.0801 17.8656 9.79031 16.4073C9.50054 14.9491 9.80073 13.4352 10.6248 12.1987C11.4489 10.9623 12.7295 10.1045 14.1847 9.81412C15.6399 9.52375 17.1507 9.82457 18.3846 10.6504H18.3914ZM20.3833 10.5615C20.1718 10.418 20.0013 10.2129 19.899 9.97363C19.7966 9.73438 19.7762 9.47461 19.8239 9.21484C19.8717 8.95508 20.0013 8.72949 20.1787 8.54492C20.356 8.36035 20.5948 8.2373 20.8472 8.18945C21.0996 8.1416 21.3656 8.16211 21.6044 8.26465C21.8432 8.36719 22.0478 8.53125 22.1911 8.74316C22.3343 8.95508 22.4094 9.20801 22.4094 9.46777C22.4094 9.63867 22.3753 9.80957 22.3139 9.9668C22.2525 10.124 22.1501 10.2676 22.0342 10.3906C21.9182 10.5137 21.7681 10.6094 21.6112 10.6777C21.4543 10.7461 21.2838 10.7803 21.1132 10.7803C20.854 10.7803 20.6016 10.7051 20.3901 10.5615H20.3833ZM30.5613 4.375C30.5613 1.96191 28.6035 0 26.1954 0H4.3659C1.95784 0 0 1.96191 0 4.375V26.25C0 28.6631 1.95784 30.625 4.3659 30.625H26.1954C28.6035 30.625 30.5613 28.6631 30.5613 26.25V4.375ZM24.3536 24.4043C23.0779 25.6826 21.5294 26.0859 19.783 26.1748C17.9821 26.2773 12.5793 26.2773 10.7783 26.1748C9.03196 26.0859 7.48343 25.6826 6.20777 24.4043C4.93211 23.126 4.52963 21.5742 4.44776 19.8242C4.34544 18.0195 4.34544 12.6055 4.44776 10.8008C4.53645 9.05078 4.93211 7.49902 6.20777 6.2207C7.48343 4.94238 9.03879 4.53906 10.7783 4.45703C12.5793 4.35449 17.9821 4.35449 19.783 4.45703C21.5294 4.5459 23.0779 4.94238 24.3536 6.2207C25.6292 7.49902 26.0317 9.05078 26.1136 10.8008C26.2159 12.5986 26.2159 18.0059 26.1136 19.8174C26.0249 21.5674 25.6292 23.1191 24.3536 24.3975V24.4043Z" fill="white"/>
</svg>
