<svg width="173" height="70" viewBox="0 0 173 70" fill="none" xmlns="http://www.w3.org/2000/svg">
<path d="M30.5382 41.6405C33.0147 37.7275 35.3409 34.0519 37.6547 30.396H40.4327V50.1873H37.7227V35.6143C37.6114 35.5698 37.5001 35.5254 37.3888 35.4809C35.0836 39.04 32.7784 42.5991 30.3536 46.343C27.9186 42.5959 25.6077 39.0399 23.0769 35.1452V50.1462H20.2163V30.4548H23.4373C25.7185 34.0483 28.0667 37.7472 30.5382 41.6405Z" fill="white"/>
<path d="M81.113 43.5102C81.7462 47.9801 85.8881 49.2887 90.2903 46.5427C90.7248 47.0899 91.1699 47.6504 91.6074 48.2013C90.0642 50.5788 85.3846 51.3119 82.2538 49.6977C78.7039 47.8675 77.1893 43.4109 78.806 39.553C80.3057 35.9744 84.0859 34.2033 87.7633 35.3565C91.2398 36.4468 93.4506 40.0416 92.6672 43.5102H81.113ZM81.1435 41.5847H89.8555C89.6635 39.1826 88.1033 37.6227 85.7875 37.4441C83.5764 37.2735 81.8124 38.8086 81.1435 41.5847Z" fill="white"/>
<path d="M52.5021 50.5578C48.2455 50.5634 44.8476 47.0805 44.8648 42.7294C44.8816 38.4753 48.3165 34.9858 52.4869 34.9861C56.6946 34.9864 60.0698 38.4103 60.107 42.7162C60.1448 47.0927 56.7898 50.5521 52.5021 50.5578ZM52.5023 47.9145C55.22 47.9194 57.3187 45.6403 57.2821 42.7238C57.246 39.8472 55.1692 37.6252 52.5157 37.624C49.8397 37.6228 47.7877 39.8225 47.7696 42.712C47.7507 45.7221 49.7406 47.9095 52.5023 47.9145Z" fill="white"/>
<path d="M73.6758 35.4648H76.5542C74.6585 40.4672 72.8148 45.3326 70.967 50.2087H67.345C65.5041 45.3643 63.6485 40.4815 61.7485 35.4819H64.8384C66.2477 39.3539 67.6902 43.3173 69.2353 47.5622C70.7766 43.3631 72.2108 39.4558 73.6758 35.4648Z" fill="white"/>
<path d="M108.846 30.4314H113.912C113.961 30.7636 114.053 31.0871 114.049 31.4094C114.002 35.371 114.181 39.3543 113.821 43.2883C113.392 47.9701 109.822 50.8456 105.245 50.7179C100.59 50.5881 97.2145 47.4886 96.9761 42.7635C96.7766 38.8083 96.9264 34.8356 96.9286 30.8707C96.9287 30.7539 97.0095 30.6372 97.0811 30.4437H102.062C102.086 30.9627 102.123 31.4213 102.124 31.8799C102.133 35.2417 102.086 38.6045 102.153 41.9651C102.209 44.7888 104.797 46.4056 107.087 45.0989C108.44 44.327 108.823 43.0041 108.835 41.5686C108.863 38.3794 108.845 35.1898 108.846 32.0003C108.846 31.5299 108.846 31.0595 108.846 30.4314Z" fill="white"/>
<path d="M117.345 35.4916H122.166C122.271 35.7448 122.39 36.0303 122.517 36.3362C126.427 33.0021 132.554 35.9525 133.102 41.7721C133.323 44.1219 132.867 46.327 131.336 48.1993C129.137 50.8903 125.885 51.3459 122.362 49.3842V56.1629H117.345V35.4916ZM128.076 42.8356C128.097 41.0915 126.909 39.7366 125.311 39.6829C123.625 39.6263 122.382 40.933 122.373 42.7712C122.364 44.5531 123.516 45.8887 125.114 45.9495C126.731 46.011 128.053 44.6205 128.076 42.8356Z" fill="white"/>
<path d="M135.955 21.3341H141.377C142.948 23.1814 146.108 22.7928 147.916 22.5275C147.891 21.3207 149.472 21.8359 150.34 20.8861C150.809 20.0196 152.784 19.7913 152.784 19.7913C152.561 22.7902 153.187 29.6211 151.182 32.1139C150.508 32.4505 148.639 33.0864 148.443 33.5071C148.094 34.6339 147.856 36.4825 146.78 35.3625C146.586 37.1487 146.676 36.6754 145.091 37.7781C145.091 37.7783 143.808 37.4027 143.808 37.4027C143.736 35.2237 143.836 36.9314 141.742 36.3612C141.003 36.0871 140.169 36.5575 140.169 36.5575C137.573 36.0787 139.087 34.8901 136.096 34.5617C136.096 34.5621 135.955 21.3341 135.955 21.3341Z" fill="#8400FF"/>
</svg>
