<svg width="26" height="26" viewBox="0 0 26 26" fill="none" xmlns="http://www.w3.org/2000/svg">
<path d="M2.4375 3.25C1.0918 3.25 0 4.3418 0 5.6875C0 6.4543 0.360547 7.17539 0.975 7.6375L12.025 15.925C12.6039 16.3566 13.3961 16.3566 13.975 15.925L25.025 7.6375C25.6395 7.17539 26 6.4543 26 5.6875C26 4.3418 24.9082 3.25 23.5625 3.25H2.4375ZM0 8.9375V19.5C0 21.2926 1.45742 22.75 3.25 22.75H22.75C24.5426 22.75 26 21.2926 26 19.5V8.9375L14.95 17.225C13.7922 18.0934 12.2078 18.0934 11.05 17.225L0 8.9375Z" fill="#8400FF"/>
</svg>
