<svg width="35" height="40" viewBox="0 0 35 40" fill="none" xmlns="http://www.w3.org/2000/svg">
<path d="M5 2.5C2.24219 2.5 0 4.74219 0 7.5V32.5C0 35.2578 2.24219 37.5 5 37.5H12.6719V26.1094H8.54688V20H12.6719V17.3672C12.6719 10.5625 15.75 7.40625 22.4375 7.40625C23.7031 7.40625 25.8906 7.65625 26.7891 7.90625V13.4375C26.3203 13.3906 25.5 13.3594 24.4766 13.3594C21.1953 13.3594 19.9297 14.6016 19.9297 17.8281V20H26.4609L25.3359 26.1094H19.9219V37.5H30C32.7578 37.5 35 35.2578 35 32.5V7.5C35 4.74219 32.7578 2.5 30 2.5H5Z" fill="#A580F7"/>
</svg>
