<svg width="31" height="35" viewBox="0 0 31 35" fill="none" xmlns="http://www.w3.org/2000/svg">
<g clip-path="url(#clip0_12001_1544)">
<path d="M4.3659 2.1875C1.95784 2.1875 0 4.14941 0 6.5625V28.4375C0 30.8506 1.95784 32.8125 4.3659 32.8125H11.0648V22.8457H7.46297V17.5H11.0648V15.1963C11.0648 9.24219 13.7526 6.48047 19.592 6.48047C20.6971 6.48047 22.6072 6.69922 23.3917 6.91797V11.7578C22.9824 11.7168 22.2661 11.6895 21.3725 11.6895C18.5073 11.6895 17.4022 12.7764 17.4022 15.5996V17.5H23.1052L22.1229 22.8457H17.3954V32.8125H26.1954C28.6035 32.8125 30.5613 30.8506 30.5613 28.4375V6.5625C30.5613 4.14941 28.6035 2.1875 26.1954 2.1875H4.3659Z" fill="white"/>
</g>
<defs>
<clipPath id="clip0_12001_1544">
<rect width="30.5613" height="35" fill="white"/>
</clipPath>
</defs>
</svg>
