<svg width="35" height="40" viewBox="0 0 35 40" fill="none" xmlns="http://www.w3.org/2000/svg">
<path d="M15.1875 14.0391C14.7325 14.3433 14.3419 14.7341 14.0379 15.1893C13.7339 15.6444 13.5226 16.155 13.4159 16.6918C13.2006 17.776 13.4247 18.9014 14.0391 19.8203C14.6534 20.7392 15.6076 21.3765 16.6918 21.5919C17.776 21.8072 18.9014 21.5831 19.8203 20.9688C20.7392 20.3544 21.3765 19.4002 21.5919 18.316C21.8072 17.2318 21.5831 16.1064 20.9688 15.1875C20.3544 14.2686 19.4002 13.6313 18.316 13.4159C17.2318 13.2006 16.1064 13.4247 15.1875 14.0391ZM26.3047 8.69531C25.8984 8.28906 25.4062 7.96875 24.8672 7.75781C23.4531 7.20313 20.3672 7.22656 18.375 7.25C18.0547 7.25 17.7578 7.25781 17.5 7.25781C17.2422 7.25781 16.9375 7.25781 16.6094 7.25C14.6172 7.22656 11.5469 7.19531 10.1328 7.75781C9.59375 7.96875 9.10938 8.28906 8.69531 8.69531C8.28125 9.10156 7.96875 9.59375 7.75781 10.1328C7.20313 11.5469 7.23438 14.6406 7.25 16.6328C7.25 16.9531 7.25781 17.25 7.25781 17.5C7.25781 17.75 7.25781 18.0469 7.25 18.3672C7.23438 20.3594 7.20313 23.4531 7.75781 24.8672C7.96875 25.4062 8.28906 25.8906 8.69531 26.3047C9.10156 26.7188 9.59375 27.0312 10.1328 27.2422C11.5469 27.7969 14.6328 27.7734 16.625 27.75C16.9453 27.75 17.2422 27.7422 17.5 27.7422C17.7578 27.7422 18.0625 27.7422 18.3906 27.75C20.3828 27.7734 23.4531 27.8047 24.8672 27.2422C25.4062 27.0312 25.8906 26.7109 26.3047 26.3047C26.7188 25.8984 27.0312 25.4062 27.2422 24.8672C27.8047 23.4609 27.7734 20.3828 27.75 18.3828C27.75 18.0547 27.7422 17.75 27.7422 17.4922C27.7422 17.2344 27.7422 16.9375 27.75 16.6016C27.7734 14.6094 27.8047 11.5312 27.2422 10.1172C27.0312 9.57812 26.7109 9.09375 26.3047 8.67969V8.69531ZM21.0625 12.1719C22.4756 13.1167 23.4555 14.5842 23.7866 16.2515C24.1177 17.9188 23.773 19.6494 22.8281 21.0625C22.3603 21.7622 21.7592 22.3629 21.0592 22.8303C20.3593 23.2977 19.5741 23.6227 18.7485 23.7866C17.0812 24.1177 15.3506 23.773 13.9375 22.8281C12.5244 21.8843 11.5441 20.4178 11.2122 18.7512C10.8804 17.0847 11.2242 15.3545 12.168 13.9414C13.1118 12.5283 14.5783 11.548 16.2448 11.2161C17.9114 10.8843 19.6416 11.2281 21.0547 12.1719H21.0625ZM23.3438 12.0703C23.1016 11.9062 22.9062 11.6719 22.7891 11.3984C22.6719 11.125 22.6484 10.8281 22.7031 10.5312C22.7578 10.2344 22.9062 9.97656 23.1094 9.76562C23.3125 9.55469 23.5859 9.41406 23.875 9.35938C24.1641 9.30469 24.4688 9.32812 24.7422 9.44531C25.0156 9.5625 25.25 9.75 25.4141 9.99219C25.5781 10.2344 25.6641 10.5234 25.6641 10.8203C25.6641 11.0156 25.625 11.2109 25.5547 11.3906C25.4844 11.5703 25.3672 11.7344 25.2344 11.875C25.1016 12.0156 24.9297 12.125 24.75 12.2031C24.5703 12.2812 24.375 12.3203 24.1797 12.3203C23.8828 12.3203 23.5938 12.2344 23.3516 12.0703H23.3438ZM35 5C35 2.24219 32.7578 0 30 0H5C2.24219 0 0 2.24219 0 5V30C0 32.7578 2.24219 35 5 35H30C32.7578 35 35 32.7578 35 30V5ZM27.8906 27.8906C26.4297 29.3516 24.6562 29.8125 22.6562 29.9141C20.5938 30.0312 14.4062 30.0312 12.3438 29.9141C10.3438 29.8125 8.57031 29.3516 7.10938 27.8906C5.64844 26.4297 5.1875 24.6562 5.09375 22.6562C4.97656 20.5938 4.97656 14.4062 5.09375 12.3438C5.19531 10.3438 5.64844 8.57031 7.10938 7.10938C8.57031 5.64844 10.3516 5.1875 12.3438 5.09375C14.4062 4.97656 20.5938 4.97656 22.6562 5.09375C24.6562 5.19531 26.4297 5.64844 27.8906 7.10938C29.3516 8.57031 29.8125 10.3438 29.9062 12.3438C30.0234 14.3984 30.0234 20.5781 29.9062 22.6484C29.8047 24.6484 29.3516 26.4219 27.8906 27.8828V27.8906Z" fill="#A580F7"/>
</svg>
