<svg width="26" height="30" viewBox="0 0 26 30" fill="none" xmlns="http://www.w3.org/2000/svg">
<g clip-path="url(#clip0_18151_165)">
<path d="M5.57143 0C2.49554 0 0 2.49554 0 5.57143V24.1429C0 27.2188 2.49554 29.7143 5.57143 29.7143H22.2857H24.1429C25.1701 29.7143 26 28.8844 26 27.8571C26 26.8299 25.1701 26 24.1429 26V22.2857C25.1701 22.2857 26 21.4558 26 20.4286V1.85714C26 0.829911 25.1701 0 24.1429 0H22.2857H5.57143ZM5.57143 22.2857H20.4286V26H5.57143C4.5442 26 3.71429 25.1701 3.71429 24.1429C3.71429 23.1156 4.5442 22.2857 5.57143 22.2857ZM7.42857 8.35714C7.42857 7.84643 7.84643 7.42857 8.35714 7.42857H19.5C20.0107 7.42857 20.4286 7.84643 20.4286 8.35714C20.4286 8.86786 20.0107 9.28571 19.5 9.28571H8.35714C7.84643 9.28571 7.42857 8.86786 7.42857 8.35714ZM8.35714 11.1429H19.5C20.0107 11.1429 20.4286 11.5607 20.4286 12.0714C20.4286 12.5821 20.0107 13 19.5 13H8.35714C7.84643 13 7.42857 12.5821 7.42857 12.0714C7.42857 11.5607 7.84643 11.1429 8.35714 11.1429Z" fill="#8400FF"/>
</g>
<defs>
<clipPath id="clip0_18151_165">
<rect width="26" height="29.7143" fill="white"/>
</clipPath>
</defs>
</svg>
